0
SECTION
2
HEADER
9
$INSUNITS
70
4
9
$ACADVER
1
AC1014
9
$HANDSEED
5
FFFF
0
ENDSEC
0
SECTION
2
TABLES
0
TABLE
2
VPORT
5
8
100
AcDbSymbolTable
0
ENDTAB
0
TABLE
2
LTYPE
5
5
100
AcDbSymbolTable
0
LTYPE
5
14
100
AcDbSymbolTableRecord
100
AcDbLinetypeTableRecord
2
BYBLOCK
70
0
0
LTYPE
5
15
100
AcDbSymbolTableRecord
100
AcDbLinetypeTableRecord
2
BYLAYER
70
0
0
ENDTAB
0
TABLE
2
LAYER
5
2
100
AcDbSymbolTable
70
2
0
LAYER
5
50
100
AcDbSymbolTableRecord
100
AcDbLayerTableRecord
2
0
70
0
6
CONTINUOUS
0
ENDTAB
0
TABLE
2
STYLE
5
3
100
AcDbSymbolTable
70
1
0
STYLE
5
11
100
AcDbSymbolTableRecord
100
AcDbTextStyleTableRecord
2
STANDARD
70
0
0
ENDTAB
0
TABLE
2
VIEW
5
6
100
AcDbSymbolTable
70
0
0
ENDTAB
0
TABLE
2
UCS
5
7
100
AcDbSymbolTable
70
0
0
ENDTAB
0
TABLE
2
APPID
5
9
100
AcDbSymbolTable
70
2
0
APPID
5
12
100
AcDbSymbolTableRecord
100
AcDbRegAppTableRecord
2
ACAD
70
0
0
ENDTAB
0
TABLE
2
DIMSTYLE
5
A
100
AcDbSymbolTable
70
1
0
ENDTAB
0
TABLE
2
BLOCK_RECORD
5
1
100
AcDbSymbolTable
70
1
0
BLOCK_RECORD
5
1F
100
AcDbSymbolTableRecord
100
AcDbBlockTableRecord
2
*MODEL_SPACE
0
BLOCK_RECORD
5
1B
100
AcDbSymbolTableRecord
100
AcDbBlockTableRecord
2
*PAPER_SPACE
0
ENDTAB
0
ENDSEC
0
SECTION
2
BLOCKS
0
BLOCK
5
20
100
AcDbEntity
100
AcDbBlockBegin
2
*MODEL_SPACE
0
ENDBLK
5
21
100
AcDbEntity
100
AcDbBlockEnd
0
BLOCK
5
1C
100
AcDbEntity
100
AcDbBlockBegin
2
*PAPER_SPACE
0
ENDBLK
5
1D
100
AcDbEntity
100
AcDbBlockEnd
0
ENDSEC
0
SECTION
2
ENTITIES
0
CIRCLE
5
100
100
AcDbEntity
8
0
100
AcDbCircle
10
186.99999592955933
20
-4.0000000000000044
30
0
40
1.7650000000000077
210
0
220
0
230
1
0
CIRCLE
5
101
100
AcDbEntity
8
0
100
AcDbCircle
10
-11.999999821186067
20
-4
30
0
40
1.765000000000001
210
0
220
0
230
1
0
CIRCLE
5
102
100
AcDbEntity
8
0
100
AcDbCircle
10
83.499997845480593
20
-100.89999765530229
30
0
40
1.7650000000000077
210
0
220
0
230
1
0
CIRCLE
5
103
100
AcDbEntity
8
0
100
AcDbCircle
10
282.49999359622609
20
-4
30
0
40
1.7650000000000077
210
0
220
0
230
1
0
CIRCLE
5
104
100
AcDbEntity
8
0
100
AcDbCircle
10
186.99999592955933
20
-100.89999800000001
30
0
40
1.7650000000000077
210
0
220
0
230
1
0
CIRCLE
5
105
100
AcDbEntity
8
0
100
AcDbCircle
10
-11.999999821186067
20
-100.89999765530229
30
0
40
1.765000000000001
210
0
220
0
230
1
0
CIRCLE
5
106
100
AcDbEntity
8
0
100
AcDbCircle
10
83.499997845480593
20
-3.9999996553022754
30
0
40
1.7650000000000077
210
0
220
0
230
1
0
CIRCLE
5
107
100
AcDbEntity
8
0
100
AcDbCircle
10
282.49999359622609
20
-100.89999800000001
30
0
40
1.7650000000000077
210
0
220
0
230
1
0
LWPOLYLINE
5
108
100
AcDbEntity
8
0
100
AcDbPolyline
90
38
70
1
43
0.0
10
49.493637731512266
20
-6.3509881742171537
10
14.499999675899744
20
-6.3509881742171501
10
14.499999675899744
20
-8.6721800887656126
42
-0.35864248038528496
10
13.51864
20
-9.480000000000004
10
0.99999999999999933
20
-9.4800000000000004
42
0.4142135623730932
10
0
20
-10.48
10
-6.8001160258290838e-15
20
-84.850028837262983
42
0.41421356237309803
10
0.99999999999999645
20
-85.850028837262983
10
49.155348758027912
20
-85.850028837262983
10
125.15594566702688
20
-96.864999994578582
10
127.49864063950822
20
-96.864999994578568
42
0.41421356237309503
10
128.49864063950821
20
-95.864999994578568
10
128.49864063950824
20
-89.364999994578568
42
-0.41421356237309503
10
129.49864063950821
20
-88.364999994578582
10
134.49864063950821
20
-88.364999994578582
42
-0.41421356237309503
10
135.49864063950818
20
-89.364999994578568
10
135.49864063950818
20
-95.864999994578568
42
0.41421356237310542
10
136.49864063950818
20
-96.864999994578568
10
137.57164306997294
20
-96.864999994578582
10
211.7508259585918
20
-85.849776346187099
10
272.97896010505031
20
-85.849776346187127
42
0.41421356237312101
10
273.97896010505042
20
-84.84977634618707
10
273.97896010505042
20
-30.864999994578611
42
-0.41421356237309503
10
274.97896010505042
20
-29.864999994578557
10
277.50949203605501
20
-29.864999994578557
42
0.41421356237307161
10
278.50949203605512
20
-28.86499999457849
10
278.50949203605506
20
-7.3499933651624261
42
0.41421356237309176
10
277.50949203605501
20
-6.3499933651623763
10
267.73381691268588
20
-6.349993365162363
42
0.41421356237309503
10
266.73381691268588
20
-7.3499933651623719
10
266.73381691268594
20
-8.3497256326667664
42
-0.41421356237309503
10
265.73381691268588
20
-9.3497256326667788
10
261.73381691268588
20
-9.3497256326667824
42
-0.41421356237309503
10
260.73381691268588
20
-8.3497256326667681
10
260.73381691268588
20
-7.3499933651623692
42
0.41421356237309437
10
259.73381691268582
20
-6.349993365162355
10
211.4610999691088
20
-6.3499933651623586
10
131.65408429807721
20
-17.548789287409896
0
LWPOLYLINE
5
109
100
AcDbEntity
8
0
100
AcDbPolyline
90
9
70
1
43
0.0
10
-16.000000000000007
20
-2
42
-0.41421356237309437
10
-14.000000000000012
20
0
10
27.99999937415123
20
1.1102230246251565e-15
10
284.50949203605512
20
1.2775519531160739e-08
42
-0.41421356237309459
10
286.50949207055271
20
-2.0000000217220659
10
286.50949212294199
20
-102.86499999457858
42
-0.41421356237309503
10
284.50949212294199
20
-104.86499999457857
10
-13.986144866726287
20
-104.86499999457855
42
-0.41624407457013884
10
-16.000000000000014
20
-102.86504798633445
0
ENDSEC
0
SECTION
2
OBJECTS
0
DICTIONARY
5
C
100
AcDbDictionary
3
ACAD_GROUP
350
D
3
ACAD_MLINESTYLE
350
17
0
DICTIONARY
5
D
100
AcDbDictionary
0
DICTIONARY
5
1A
330
C
100
AcDbDictionary
0
DICTIONARY
5
17
100
AcDbDictionary
0
ENDSEC
0
EOF
