0
SECTION
2
HEADER
9
$INSUNITS
70
4
9
$ACADVER
1
AC1014
9
$HANDSEED
5
FFFF
0
ENDSEC
0
SECTION
2
TABLES
0
TABLE
2
VPORT
5
8
100
AcDbSymbolTable
0
ENDTAB
0
TABLE
2
LTYPE
5
5
100
AcDbSymbolTable
0
LTYPE
5
14
100
AcDbSymbolTableRecord
100
AcDbLinetypeTableRecord
2
BYBLOCK
70
0
0
LTYPE
5
15
100
AcDbSymbolTableRecord
100
AcDbLinetypeTableRecord
2
BYLAYER
70
0
0
ENDTAB
0
TABLE
2
LAYER
5
2
100
AcDbSymbolTable
70
2
0
LAYER
5
50
100
AcDbSymbolTableRecord
100
AcDbLayerTableRecord
2
0
70
0
6
CONTINUOUS
0
ENDTAB
0
TABLE
2
STYLE
5
3
100
AcDbSymbolTable
70
1
0
STYLE
5
11
100
AcDbSymbolTableRecord
100
AcDbTextStyleTableRecord
2
STANDARD
70
0
0
ENDTAB
0
TABLE
2
VIEW
5
6
100
AcDbSymbolTable
70
0
0
ENDTAB
0
TABLE
2
UCS
5
7
100
AcDbSymbolTable
70
0
0
ENDTAB
0
TABLE
2
APPID
5
9
100
AcDbSymbolTable
70
2
0
APPID
5
12
100
AcDbSymbolTableRecord
100
AcDbRegAppTableRecord
2
ACAD
70
0
0
ENDTAB
0
TABLE
2
DIMSTYLE
5
A
100
AcDbSymbolTable
70
1
0
ENDTAB
0
TABLE
2
BLOCK_RECORD
5
1
100
AcDbSymbolTable
70
1
0
BLOCK_RECORD
5
1F
100
AcDbSymbolTableRecord
100
AcDbBlockTableRecord
2
*MODEL_SPACE
0
BLOCK_RECORD
5
1B
100
AcDbSymbolTableRecord
100
AcDbBlockTableRecord
2
*PAPER_SPACE
0
ENDTAB
0
ENDSEC
0
SECTION
2
BLOCKS
0
BLOCK
5
20
100
AcDbEntity
100
AcDbBlockBegin
2
*MODEL_SPACE
0
ENDBLK
5
21
100
AcDbEntity
100
AcDbBlockEnd
0
BLOCK
5
1C
100
AcDbEntity
100
AcDbBlockBegin
2
*PAPER_SPACE
0
ENDBLK
5
1D
100
AcDbEntity
100
AcDbBlockEnd
0
ENDSEC
0
SECTION
2
ENTITIES
0
CIRCLE
5
100
100
AcDbEntity
8
0
100
AcDbCircle
10
186.99999592955933
20
-4.0000000000000044
30
0
40
1.7650000000000077
210
0
220
0
230
1
0
CIRCLE
5
101
100
AcDbEntity
8
0
100
AcDbCircle
10
-11.999999821186067
20
-4
30
0
40
1.765000000000001
210
0
220
0
230
1
0
CIRCLE
5
102
100
AcDbEntity
8
0
100
AcDbCircle
10
83.499997845480593
20
-100.89999765530229
30
0
40
1.7650000000000077
210
0
220
0
230
1
0
CIRCLE
5
103
100
AcDbEntity
8
0
100
AcDbCircle
10
282.49999359622609
20
-4
30
0
40
1.7650000000000077
210
0
220
0
230
1
0
CIRCLE
5
104
100
AcDbEntity
8
0
100
AcDbCircle
10
186.99999592955933
20
-100.89999800000001
30
0
40
1.7650000000000077
210
0
220
0
230
1
0
CIRCLE
5
105
100
AcDbEntity
8
0
100
AcDbCircle
10
-11.999999821186067
20
-100.89999765530229
30
0
40
1.765000000000001
210
0
220
0
230
1
0
CIRCLE
5
106
100
AcDbEntity
8
0
100
AcDbCircle
10
83.499997845480593
20
-3.9999996553022754
30
0
40
1.7650000000000077
210
0
220
0
230
1
0
CIRCLE
5
107
100
AcDbEntity
8
0
100
AcDbCircle
10
282.49999359622609
20
-100.89999800000001
30
0
40
1.7650000000000077
210
0
220
0
230
1
0
CIRCLE
5
108
100
AcDbEntity
8
0
100
AcDbCircle
10
274.95144999999968
20
-11.793795695425814
30
0
40
0.50000000000000711
210
0
220
0
230
1
0
CIRCLE
5
109
100
AcDbEntity
8
0
100
AcDbCircle
10
274.95144999999968
20
-23.2937956954258
30
0
40
0.50000000000000711
210
0
220
0
230
1
0
CIRCLE
5
110
100
AcDbEntity
8
0
100
AcDbCircle
10
274.95144999999968
20
-17.543795695425803
30
0
40
0.50000000000000711
210
0
220
0
230
1
0
LWPOLYLINE
5
111
100
AcDbEntity
8
0
100
AcDbPolyline
90
32
70
1
43
0.0
10
273.97194999999999
20
-46.021806164351993
42
-0.41421356237313395
10
275.10944999999998
20
-47.159306164352003
10
275.10945000000004
20
-65.035006164351984
42
-0.41421356237305385
10
273.97195000000005
20
-66.172506164352029
10
273.01044999999999
20
-66.172506164351944
10
273.01044999999999
20
-84.273906164352027
42
-0.41421356237314993
10
271.87295
20
-85.411406164352059
10
225.42495000000008
20
-85.411406164352002
42
-0.41421356237309048
10
224.28745000000009
20
-84.273906164352027
10
224.28745000000006
20
-66.172506164351987
10
213.69031333100185
20
-66.172506164351987
10
204.22161225198295
20
-67.503282501358925
10
206.71393966983854
20
-85.241795977805666
42
-0.41419860670681596
10
205.74582992361388
20
-86.526492004148793
10
140.88510088438471
20
-95.64304409755691
42
-0.41420401556784081
10
139.60035250128988
20
-94.6749791500784
10
134.45967286605509
20
-58.109686255661032
42
-0.41419669678083482
10
135.4276677897025
20
-56.824910277684324
10
143.7345514405699
20
-55.656565637818446
10
141.23428984995832
20
-37.881500788173256
10
137.6458478669613
20
-38.385808373262066
42
-0.41419851103858585
10
136.36112065375153
20
-37.417740450436085
10
133.87261711843382
20
-19.717189726749297
42
-0.41413574816193394
10
134.84037764051536
20
-18.432446741701657
10
212.08886388648327
20
-7.5512258356033133
42
-0.034999104756220201
10
212.24752580695608
20
-7.5401061643519469
10
268.63795000000027
20
-7.54010616435197
42
-0.41421356237312423
10
269.77545000000032
20
-8.6776061643519
10
269.77545000000009
20
-26.78030616435203
10
271.30495000000002
20
-26.780306164351998
42
-0.41421356237311791
10
272.44245000000012
20
-27.917806164352012
10
272.44245000000006
20
-46.021806164352
0
LWPOLYLINE
5
112
100
AcDbEntity
8
0
100
AcDbPolyline
90
31
70
1
43
0.0
10
60.074950743065195
20
-87.19035190787848
42
-0.4142297541220657
10
59.106828685938837
20
-85.905558056178137
10
61.600583553349963
20
-68.167654976440929
10
46.221450000000033
20
-66.00583447904404
10
46.221450000000047
20
-84.122096164351987
42
-0.4142135623730836
10
45.083949999999938
20
-85.259596164352075
10
-1.3640499999999631
20
-85.259596164352004
42
-0.41421356237309476
10
-2.5015499999999591
20
-84.122096164352001
10
-2.5015499999999236
20
-66.020696164352003
10
-3.4600500000000523
20
-66.020696164351989
42
-0.41421356237310303
10
-4.5975500000000125
20
-64.883196164352
10
-4.5975500000000036
20
-47.007496164351977
42
-0.41421356237310181
10
-3.4600500000000527
20
-45.869996164352017
10
-1.645549999999929
20
-45.869996164351996
10
-1.645549999999933
20
-27.765996164352011
42
-0.41421356237309492
10
-0.5080499999999688
20
-26.628496164352047
10
0.92745000000007849
20
-26.628496164352011
10
0.92744999999993638
20
-8.5257961643519842
42
-0.41421356237309559
10
2.0649500000000387
20
-7.3882961643518819
10
41.175117190605455
20
-7.3882961643520284
42
-0.35500112737466877
10
42.403390399295809
20
-6.6473092621999363
10
116.83381870527214
20
-17.092319524356732
42
-0.41407102073684543
10
117.80227845557251
20
-18.376312804777314
10
115.31937637562253
20
-36.132090948734252
10
118.89601165329807
20
-36.634775517371821
42
-0.41420498386103871
10
119.86412932636567
20
-37.919487499395302
10
117.37157059272981
20
-55.65798389583604
10
125.67591079253312
20
-56.826210416622033
42
-0.41416145938996485
10
126.64388841282627
20
-58.110878260979817
10
121.50682993892673
20
-94.67481825328062
42
-0.41422432189784747
10
120.222092543665
20
-95.642990443008699
0
LWPOLYLINE
5
113
100
AcDbEntity
8
0
100
AcDbPolyline
90
10
70
1
43
0.0
10
10.904634641356594
20
2.2204460492503131e-15
10
29.228751350292441
20
-2.172207080874955e-08
10
284.50949203605512
20
1.2775525082275863e-08
42
-0.41421356237309537
10
286.50949207055271
20
-2.0000000217220659
10
286.50949212294199
20
-102.86499999457858
42
-0.41421356237310025
10
284.50949212294199
20
-104.86499999457857
10
-13.986144866726292
20
-104.86499999457855
42
-0.4162440745701379
10
-16.000000000000014
20
-102.86504798633445
10
-16.000000000000018
20
-1.9999999999999993
42
-0.41421356237309437
10
-14.000000000000021
20
2.2204460492503131e-15
0
ENDSEC
0
SECTION
2
OBJECTS
0
DICTIONARY
5
C
100
AcDbDictionary
3
ACAD_GROUP
350
D
3
ACAD_MLINESTYLE
350
17
0
DICTIONARY
5
D
100
AcDbDictionary
0
DICTIONARY
5
1A
330
C
100
AcDbDictionary
0
DICTIONARY
5
17
100
AcDbDictionary
0
ENDSEC
0
EOF
