0
SECTION
2
HEADER
9
$INSUNITS
70
4
9
$ACADVER
1
AC1014
9
$HANDSEED
5
FFFF
0
ENDSEC
0
SECTION
2
TABLES
0
TABLE
2
VPORT
5
8
100
AcDbSymbolTable
0
ENDTAB
0
TABLE
2
LTYPE
5
5
100
AcDbSymbolTable
0
LTYPE
5
14
100
AcDbSymbolTableRecord
100
AcDbLinetypeTableRecord
2
BYBLOCK
70
0
0
LTYPE
5
15
100
AcDbSymbolTableRecord
100
AcDbLinetypeTableRecord
2
BYLAYER
70
0
0
ENDTAB
0
TABLE
2
LAYER
5
2
100
AcDbSymbolTable
70
2
0
LAYER
5
50
100
AcDbSymbolTableRecord
100
AcDbLayerTableRecord
2
0
70
0
6
CONTINUOUS
0
ENDTAB
0
TABLE
2
STYLE
5
3
100
AcDbSymbolTable
70
1
0
STYLE
5
11
100
AcDbSymbolTableRecord
100
AcDbTextStyleTableRecord
2
STANDARD
70
0
0
ENDTAB
0
TABLE
2
VIEW
5
6
100
AcDbSymbolTable
70
0
0
ENDTAB
0
TABLE
2
UCS
5
7
100
AcDbSymbolTable
70
0
0
ENDTAB
0
TABLE
2
APPID
5
9
100
AcDbSymbolTable
70
2
0
APPID
5
12
100
AcDbSymbolTableRecord
100
AcDbRegAppTableRecord
2
ACAD
70
0
0
ENDTAB
0
TABLE
2
DIMSTYLE
5
A
100
AcDbSymbolTable
70
1
0
ENDTAB
0
TABLE
2
BLOCK_RECORD
5
1
100
AcDbSymbolTable
70
1
0
BLOCK_RECORD
5
1F
100
AcDbSymbolTableRecord
100
AcDbBlockTableRecord
2
*MODEL_SPACE
0
BLOCK_RECORD
5
1B
100
AcDbSymbolTableRecord
100
AcDbBlockTableRecord
2
*PAPER_SPACE
0
ENDTAB
0
ENDSEC
0
SECTION
2
BLOCKS
0
BLOCK
5
20
100
AcDbEntity
100
AcDbBlockBegin
2
*MODEL_SPACE
0
ENDBLK
5
21
100
AcDbEntity
100
AcDbBlockEnd
0
BLOCK
5
1C
100
AcDbEntity
100
AcDbBlockBegin
2
*PAPER_SPACE
0
ENDBLK
5
1D
100
AcDbEntity
100
AcDbBlockEnd
0
ENDSEC
0
SECTION
2
ENTITIES
0
CIRCLE
5
100
100
AcDbEntity
8
0
100
AcDbCircle
10
186.99999592955933
20
-4.0000000000000044
30
0
40
1.7650000000000077
210
0
220
0
230
1
0
CIRCLE
5
101
100
AcDbEntity
8
0
100
AcDbCircle
10
-11.999999821186067
20
-4
30
0
40
1.765000000000001
210
0
220
0
230
1
0
CIRCLE
5
102
100
AcDbEntity
8
0
100
AcDbCircle
10
83.499997845480593
20
-100.89999765530229
30
0
40
1.7650000000000077
210
0
220
0
230
1
0
CIRCLE
5
103
100
AcDbEntity
8
0
100
AcDbCircle
10
282.49999359622609
20
-4
30
0
40
1.7650000000000077
210
0
220
0
230
1
0
CIRCLE
5
104
100
AcDbEntity
8
0
100
AcDbCircle
10
186.99999592955933
20
-100.89999800000001
30
0
40
1.7650000000000077
210
0
220
0
230
1
0
CIRCLE
5
105
100
AcDbEntity
8
0
100
AcDbCircle
10
-11.999999821186067
20
-100.89999765530229
30
0
40
1.765000000000001
210
0
220
0
230
1
0
CIRCLE
5
106
100
AcDbEntity
8
0
100
AcDbCircle
10
83.499997845480593
20
-3.9999996553022754
30
0
40
1.7650000000000077
210
0
220
0
230
1
0
CIRCLE
5
107
100
AcDbEntity
8
0
100
AcDbCircle
10
282.49999359622609
20
-100.89999800000001
30
0
40
1.7650000000000077
210
0
220
0
230
1
0
LWPOLYLINE
5
108
100
AcDbEntity
8
0
100
AcDbPolyline
90
51
70
1
43
0.0
10
278.50949203605512
20
-28.86499999457849
10
278.50949203605506
20
-7.3499933651624252
42
0.41421356237309209
10
277.50949203605501
20
-6.3499933651623754
10
267.73381691268588
20
-6.3499933651623639
42
0.4142135623730947
10
266.73381691268588
20
-7.3499933651623728
10
266.73381691268594
20
-8.3497256326667664
42
-0.41421356237309503
10
265.73381691268588
20
-9.3497256326667788
10
261.73381691268588
20
-9.3497256326667824
42
-0.41421356237309503
10
260.73381691268588
20
-8.3497256326667681
10
260.73381691268588
20
-7.3499933651623692
42
0.41421356237309437
10
259.73381691268582
20
-6.349993365162355
10
211.46109996910877
20
-6.3499933651623586
10
131.65408429807721
20
-17.548789287409896
10
49.493637731512266
20
-6.3509881742171537
10
27.993579374928448
20
-6.3509881742171501
42
-0.41421356237309243
10
26.993579374928451
20
-5.3509881742171448
10
26.993579374928444
20
-1.0000000217220677
42
-0.41421356237309764
10
27.993579374928466
20
-2.1722055265627205e-08
10
284.50949203605512
20
1.2775519253604983e-08
42
-0.41421356237309453
10
286.50949207055271
20
-2.0000000217220659
10
286.50949212294199
20
-102.86499999389015
42
-0.41421356247391283
10
284.50949212294199
20
-104.86499999457857
10
-13.986144866726287
20
-104.86499999457855
42
-0.41624407457013857
10
-16.000000000000014
20
-102.86504798633445
10
-16.000000000000007
20
-2
42
-0.41421356237309276
10
-14.00000000000002
20
0
10
13.51864
20
3.3306690738754696e-15
42
-0.41421356237309276
10
14.518640000000005
20
-0.99999999999999645
10
14.518640000000005
20
-8.4800000000000004
42
-0.41421356237309698
10
13.518639999999991
20
-9.480000000000004
10
0.99999999999999933
20
-9.4800000000000004
42
0.4142135623730932
10
0
20
-10.48
10
-6.6613381477509392e-15
20
-84.850028837262983
42
0.41421356237309309
10
0.99999999999997868
20
-85.850028837262983
10
49.155348758027912
20
-85.850028837262983
10
125.15594566702688
20
-96.864999994578568
10
127.49864063950822
20
-96.864999994578568
42
0.41421356237309503
10
128.49864063950821
20
-95.864999994578568
10
128.49864063950821
20
-89.364999994578568
42
-0.41421356237310542
10
129.49864063950821
20
-88.364999994578568
10
134.49864063950821
20
-88.364999994578568
42
-0.41421356237309503
10
135.49864063950818
20
-89.36499999457854
10
135.49864063950818
20
-95.864999994578568
42
0.41421356237310542
10
136.49864063950818
20
-96.864999994578568
10
137.57164306997294
20
-96.864999994578568
10
211.7508259585918
20
-85.849776346187099
10
272.97896010505031
20
-85.849776346187127
42
0.41421356237312101
10
273.97896010505042
20
-84.84977634618707
10
273.97896010505042
20
-30.864999994578611
42
-0.41421356237309503
10
274.97896010505042
20
-29.864999994578557
10
277.50949203605501
20
-29.864999994578557
42
0.41421356237307161
0
ENDSEC
0
SECTION
2
OBJECTS
0
DICTIONARY
5
C
100
AcDbDictionary
3
ACAD_GROUP
350
D
3
ACAD_MLINESTYLE
350
17
0
DICTIONARY
5
D
100
AcDbDictionary
0
DICTIONARY
5
1A
330
C
100
AcDbDictionary
0
DICTIONARY
5
17
100
AcDbDictionary
0
ENDSEC
0
EOF
