0
SECTION
2
HEADER
9
$INSUNITS
70
4
9
$ACADVER
1
AC1014
9
$HANDSEED
5
FFFF
0
ENDSEC
0
SECTION
2
TABLES
0
TABLE
2
VPORT
5
8
100
AcDbSymbolTable
0
ENDTAB
0
TABLE
2
LTYPE
5
5
100
AcDbSymbolTable
0
LTYPE
5
14
100
AcDbSymbolTableRecord
100
AcDbLinetypeTableRecord
2
BYBLOCK
70
0
0
LTYPE
5
15
100
AcDbSymbolTableRecord
100
AcDbLinetypeTableRecord
2
BYLAYER
70
0
0
ENDTAB
0
TABLE
2
LAYER
5
2
100
AcDbSymbolTable
70
2
0
LAYER
5
50
100
AcDbSymbolTableRecord
100
AcDbLayerTableRecord
2
0
70
0
6
CONTINUOUS
0
ENDTAB
0
TABLE
2
STYLE
5
3
100
AcDbSymbolTable
70
1
0
STYLE
5
11
100
AcDbSymbolTableRecord
100
AcDbTextStyleTableRecord
2
STANDARD
70
0
0
ENDTAB
0
TABLE
2
VIEW
5
6
100
AcDbSymbolTable
70
0
0
ENDTAB
0
TABLE
2
UCS
5
7
100
AcDbSymbolTable
70
0
0
ENDTAB
0
TABLE
2
APPID
5
9
100
AcDbSymbolTable
70
2
0
APPID
5
12
100
AcDbSymbolTableRecord
100
AcDbRegAppTableRecord
2
ACAD
70
0
0
ENDTAB
0
TABLE
2
DIMSTYLE
5
A
100
AcDbSymbolTable
70
1
0
ENDTAB
0
TABLE
2
BLOCK_RECORD
5
1
100
AcDbSymbolTable
70
1
0
BLOCK_RECORD
5
1F
100
AcDbSymbolTableRecord
100
AcDbBlockTableRecord
2
*MODEL_SPACE
0
BLOCK_RECORD
5
1B
100
AcDbSymbolTableRecord
100
AcDbBlockTableRecord
2
*PAPER_SPACE
0
ENDTAB
0
ENDSEC
0
SECTION
2
BLOCKS
0
BLOCK
5
20
100
AcDbEntity
100
AcDbBlockBegin
2
*MODEL_SPACE
0
ENDBLK
5
21
100
AcDbEntity
100
AcDbBlockEnd
0
BLOCK
5
1C
100
AcDbEntity
100
AcDbBlockBegin
2
*PAPER_SPACE
0
ENDBLK
5
1D
100
AcDbEntity
100
AcDbBlockEnd
0
ENDSEC
0
SECTION
2
ENTITIES
0
LWPOLYLINE
5
100
100
AcDbEntity
8
0
100
AcDbPolyline
90
16
70
1
43
0.0
10
-55.997139587989295
20
11.434682805734296
42
-0.78779045840591599
10
-57.869481203252406
20
13.919266194857315
42
0.13814629366361492
10
-57.523078502804196
20
14.707291379760861
10
-56.352940453917164
20
23.034673713193087
42
0.13815421321145716
10
-56.468774592649496
20
23.887693497126158
42
-0.78776384171090574
10
-53.984347530763579
20
25.760201653627494
42
0.13813675287841176
10
-53.19634455837889
20
25.413890628094581
10
-44.867194046521305
20
24.244085017438948
42
0.13816837096628939
10
-44.014101267578674
20
24.360012631239133
42
-0.78794580570325612
10
-42.141741816781398
20
21.875262938678869
42
0.13816890797045545
10
-42.488336947847507
20
21.087174198795644
10
-43.659752440700174
20
12.758590262381224
42
0.13813159878124193
10
-43.544085732590609
20
11.905684635697289
42
-0.78774148506889563
10
-46.028855197748584
20
10.033665219104204
42
0.13815367659594671
10
-46.816905753041162
20
10.380120238709182
10
-55.144132221142932
20
11.550485098440086
42
0.13815144734113857
0
CIRCLE
5
101
100
AcDbEntity
8
0
100
AcDbCircle
10
11.999999821186067
20
100.89999765530229
30
0
40
1.765000000000001
210
0
220
-0
230
1
0
LWPOLYLINE
5
102
100
AcDbEntity
8
0
100
AcDbPolyline
90
16
70
1
43
0.0
10
-137.25165168665211
20
23.197829022182212
42
-0.78778474116164854
10
-139.12375228336057
20
20.713070641665109
42
0.13814542411016806
10
-139.97673438211709
20
20.828790490569659
10
-148.3058980452287
20
19.657481200246217
42
0.13816700280473124
10
-149.09398528186213
20
19.310911034837169
42
-0.78789367239946539
10
-151.57876157243817
20
21.183155161678311
42
0.13815700819289883
10
-151.46290862953998
20
22.036189309166772
10
-152.63314118448938
20
30.36508523221347
42
0.13813619561107751
10
-152.97949293210286
20
31.153066655859686
42
-0.78778775386150568
10
-151.10702806702503
20
33.637554030199695
42
0.13816085698167446
10
-150.25396806764297
20
33.521719911786377
10
-141.92587373488848
20
34.692122320754791
42
0.13815156996842812
10
-141.13782986964381
20
35.038561163249213
42
-0.78777541580235932
10
-138.6531478316991
20
33.166373571602946
42
0.13814234217236787
10
-138.76889218332852
20
32.313413451361583
10
-137.59812821999969
20
23.985851676080006
42
0.13815086166507135
0
LWPOLYLINE
5
103
100
AcDbEntity
8
0
100
AcDbPolyline
90
16
70
1
43
0.0
10
-79.168963686227144
20
84.79025973527952
42
-0.78773817388979206
10
-76.684221993188984
20
86.662310925119769
42
0.13814738652786321
10
-75.896204147548474
20
86.315875242119247
10
-67.568998908189315
20
85.145453298175511
42
0.13815930685630742
10
-66.715945798256811
20
85.261269055928821
42
-0.78783379274356879
10
-64.843653875063509
20
82.776598064015133
42
0.13814946391489868
10
-65.190124872572909
20
81.988582133932312
10
-66.3608751044614
20
73.66111802942072
42
0.13814947350437962
10
-66.245113063304501
20
72.808117146052837
42
-0.7877850447983602
10
-68.72977205392408
20
70.935884174237188
42
0.13814688955732521
10
-69.517788502545812
20
71.282315628683023
10
-77.84599151046865
20
72.452853451911409
42
0.13815980382459145
10
-78.699047128762686
20
72.337034014206225
42
-0.78788457315968352
10
-80.571223561836007
20
74.821850783364965
42
0.13816189134736515
10
-80.224646815977323
20
75.609901635952127
10
-79.053293652222607
20
83.937321589353061
42
0.1381370460146415
0
LWPOLYLINE
5
104
100
AcDbEntity
8
0
100
AcDbPolyline
90
16
70
1
43
0.0
10
-102.20308892528917
20
39.386391995125791
42
-0.78774351634431183
10
-104.68785519774855
20
37.51436521910427
42
0.13815367659595015
10
-105.47590575304115
20
37.860820238709188
10
-113.80316793340405
20
39.031190117683394
42
0.13814935088812391
10
-114.65616331711988
20
38.915393026006882
42
-0.78779045841246131
10
-116.52848448725868
20
41.399991822118565
42
0.13814839011897972
10
-116.18207348454445
20
42.188027092614533
10
-115.01194045391715
20
50.515373713193163
42
0.13815421321145174
10
-115.12777459264944
20
51.368393497126149
42
-0.78774939914482345
10
-112.64339157175698
20
53.240937897888287
42
0.13813307664706942
10
-111.85539893889528
20
52.894658148866249
10
-103.52622920436337
20
51.725030058485075
42
0.13816995071254676
10
-102.6731298565676
20
51.840979694671603
42
-0.78795821921414755
10
-100.80073343512892
20
49.356243505792719
42
0.13817048736464102
10
-101.14733247048919
20
48.568146134822065
10
-102.31875946100342
20
40.239300232265961
42
0.13813211583223375
0
CIRCLE
5
105
100
AcDbEntity
8
0
100
AcDbCircle
10
-186.99999592955933
20
4.0000000000000044
30
0
40
1.7650000000000077
210
0
220
-0
230
1
0
LWPOLYLINE
5
106
100
AcDbEntity
8
0
100
AcDbPolyline
90
24
70
1
43
0.0
10
-168.57733511517949
20
74.030681402878727
42
-0.20356626006042808
10
-169.64128785000256
20
73.39145596168072
10
-171.86539035854497
20
73.079471978207181
42
-0.15238236643911998
10
-172.79851336547878
20
73.23300286446765
42
0.20380069638136455
10
-174.03854210870077
20
73.311747038522768
42
-0.65479486193330716
10
-176.0378517521176
20
75.457870215099646
42
0.13815140770487475
10
-175.92206459650274
20
76.310879396879827
10
-177.09258783058732
20
84.638167493357926
42
0.13815140770488638
10
-177.43904775781758
20
85.42620102591242
42
-0.78780064589805932
10
-175.56683568867714
20
87.910893825832233
42
0.13814892633688605
10
-174.71383903212813
20
87.795125042699155
10
-147.52106362170389
20
91.617868087860614
42
0.13816373247314317
10
-146.73297576462855
20
91.96438811518091
42
-0.78785881805569469
10
-144.2482570416347
20
90.092121104717222
42
0.13815140770482098
10
-144.36409266107941
20
89.239118502801787
10
-143.19383028122905
20
80.910253203230383
42
0.13815140770489084
10
-142.84741512696053
20
80.122199987705102
42
-0.65469972402618115
10
-144.17732362487317
20
77.508117466132973
42
0.20382937040839705
10
-145.34763230784381
20
77.090206805969245
42
-0.15262391885384469
10
-146.20362479136185
20
76.684897755857762
10
-148.42554748638224
20
76.373343042195771
42
-0.203436700318299
10
-149.62367088990464
20
76.694746696924256
42
0.2035250169844387
10
-150.82232757756637
20
77.016075483108267
10
-167.51382996912361
20
74.669843993992174
42
0.20349213363737059
0
LWPOLYLINE
5
107
100
AcDbEntity
8
0
100
AcDbPolyline
90
16
70
1
43
0.0
10
-183.86606762842428
20
45.212721608829042
42
-0.13816348001152706
10
-183.7502011701466
20
46.065793092667811
42
0.78789841392855475
10
-186.23494993581954
20
47.93808102840601
42
-0.13816173773712917
10
-187.02300840008687
20
47.591523879220425
10
-195.351352835244
20
46.420245317501781
42
-0.13814053145078434
10
-196.20430811750364
20
46.535944547323737
42
0.78777797078796963
10
-198.07635327570159
20
44.051152235689884
42
-0.13815403102360024
10
-197.72986418987003
20
43.263114335855867
10
-196.55912455321501
20
34.935725594495651
42
-0.13814933056421996
10
-196.67488623979273
20
34.082725528176901
42
0.78779662700225972
10
-194.19019088635653
20
32.210523021631857
42
-0.13814998054572189
10
-193.40216546327082
20
32.55698012635979
10
-185.07487385473388
20
33.727534346770575
42
-0.13815228868342827
10
-184.22185922156442
20
33.611748068645902
42
0.78776857229083508
10
-182.34950719661362
20
36.096298275892458
42
-0.13813988152657802
10
-182.69587588947121
20
36.884296399797812
0
LWPOLYLINE
5
108
100
AcDbEntity
8
0
100
AcDbPolyline
90
16
70
1
43
0.0
10
-45.609149705270084
20
31.433832078632079
42
-0.78772921992166423
10
-48.093693709956895
20
29.561532288490007
42
0.13814019545920683
10
-48.881706363617177
20
29.907872603467638
10
-57.208962022424998
20
31.077580815571583
42
0.13815966228194285
10
-58.062007329687987
20
30.961691764457726
42
-0.78783598187567505
10
-59.93450813045952
20
33.446207879153306
42
0.13814966567039408
10
-59.588100691941086
20
34.234253073300913
10
-58.417914725954176
20
42.562637195290726
42
0.13815610736721881
10
-58.53376289045093
20
43.415666539296829
42
-0.78783100654980065
10
-56.049165432829327
20
45.288051765176931
42
0.13815195425824683
10
-55.261119718907707
20
44.941611400773276
10
-46.932811278066985
20
43.771178901773375
42
0.13814790351660383
10
-46.079825318587488
20
43.886980882453614
42
-0.78784537478759253
10
-44.207631403379118
20
41.402222638218717
42
0.13816381511585213
10
-44.554159240977391
20
40.614137673887107
10
-45.724893103682575
20
32.28679000222543
42
0.13814195788123865
0
LWPOLYLINE
5
109
100
AcDbEntity
8
0
100
AcDbPolyline
90
16
70
1
43
0.0
10
-156.46116134005661
20
37.513079978235893
42
-0.78784071318495363
10
-158.94576740072046
20
39.385468694518764
42
0.1381582038276094
10
-158.82991149112416
20
40.238509675919005
10
-160.00012278469401
20
48.567254275354088
42
0.13814388296206573
10
-160.34650497381341
20
49.355272682548957
42
-0.78783395234486842
10
-158.47394772506652
20
51.839743904303418
42
0.13816492842155753
10
-157.62087231876234
20
51.723841784871631
10
-149.29367944865766
20
52.893541177207652
42
0.1381386155247761
10
-148.50567439623416
20
53.239875236008956
42
-0.78768107637681262
10
-146.02106632132734
20
51.367734468055176
42
0.13813128267855321
10
-146.13672291161518
20
50.514829382570454
10
-144.96537178400291
20
42.1873638352873
42
0.13817080398510131
10
-144.61876051781306
20
41.399269768948244
42
-0.78788584813243068
10
-146.49085711474459
20
38.914391374612684
42
0.13815121566813293
10
-147.34386331222086
20
39.030191951927591
10
-155.67311773390611
20
37.859530712004229
42
0.13815232834240068
0
LWPOLYLINE
5
110
100
AcDbEntity
8
0
100
AcDbPolyline
90
16
70
1
43
0.0
10
-233.67000000000019
20
21.8306646869068
42
-0.1381557389179266
10
-233.43659021913561
20
22.65927552948726
42
0.78781039474444248
10
-235.63643150023114
20
24.859191608216342
42
-0.13814707648490274
10
-236.46499630218273
20
24.625810000000101
10
-244.87500369781736
20
24.625810000000019
42
-0.13814707648486096
10
-245.70356849976906
20
24.859191608216271
42
0.78781039474448655
10
-247.90340978086462
20
22.659275529487331
42
-0.13815573891789537
10
-247.67000000000019
20
21.830664686907191
10
-247.67000000000013
20
13.420255313093147
42
-0.13815573891793906
10
-247.90340978086473
20
12.591644470512751
42
0.78781039474455083
10
-245.70356849976886
20
10.39172839178374
42
-0.13814707648484129
10
-244.87500369781742
20
10.625109999999998
10
-236.46499630218287
20
10.625109999999975
42
-0.13814707648485725
10
-235.63643150023128
20
10.391728391783669
42
0.78781039474453629
10
-233.43659021913578
20
12.591644470512797
42
-0.13815573891788813
10
-233.67000000000019
20
13.420255313092939
0
LWPOLYLINE
5
111
100
AcDbEntity
8
0
100
AcDbPolyline
90
16
70
1
43
0.0
10
-175.56847852478344
20
56.285976069700958
42
-0.78784839813441643
10
-177.44098538538174
20
53.801450152944014
42
0.13815807241936073
10
-178.29401914612848
20
53.917353361645326
10
-186.6213480220452
20
52.747815071130297
42
0.13813651872270366
10
-187.40935033589525
20
52.40150603776496
42
-0.78776089209116107
10
-189.89377778438939
20
54.274009149970951
42
0.13815369657222085
10
-189.7779474711929
20
55.127026326309206
10
-190.94804380036081
20
63.453931558337622
42
0.13815734304830027
10
-191.2944926088949
20
64.242008865497382
42
-0.78777804355229486
10
-189.4223111361776
20
66.72669855600104
42
0.13813723794087596
10
-188.56938253340545
20
66.61094961315402
10
-180.2419601252461
20
67.78152221986106
42
0.13815735320670033
10
-179.45389923614638
20
68.12800852401368
42
-0.78785424831768225
10
-176.96924030082675
20
66.255669187929186
42
0.13815662390380054
10
-177.08509229020481
20
65.402637236932463
10
-175.91490242477008
20
57.074045147959083
42
0.13815441571751028
0
LWPOLYLINE
5
112
100
AcDbEntity
8
0
100
AcDbPolyline
90
16
70
1
43
0.0
10
-65.313960053830087
20
63.605763242628598
42
-0.78774848037504508
10
-62.829186196058401
20
65.477787579201333
42
0.13815036424032076
10
-62.04115892719588
20
65.131328954874618
10
-53.713963556941309
20
63.960788262527004
42
0.13815755466688465
10
-52.860918823890799
20
64.076587604756369
42
-0.78782619351364869
10
-50.988660066658809
20
61.591900415903915
42
0.13814928192837317
10
-51.335132694422882
20
60.803886394948051
10
-52.505869345948064
20
52.476699092351005
42
0.1381484299741691
10
-52.390112438258292
20
51.623703828468521
42
-0.78777338508974304
10
-54.874749133387802
20
49.751459181312718
42
0.13814496527782064
10
-55.6627612255065
20
50.097871867554574
10
-63.990932353969185
20
51.268285069133988
42
0.13816295360411143
10
-64.844004337126492
20
51.152445748627017
42
-0.78789352581224992
10
-66.716224168208925
20
53.637240175956642
42
0.13816102008870368
10
-66.36965165755602
20
54.42528718263425
10
-65.198290049712597
20
62.752827236835351
42
0.1381366917589856
0
LWPOLYLINE
5
113
100
AcDbEntity
8
0
100
AcDbPolyline
90
14
70
1
43
0.0
10
-90.916655615254797
20
69.189449255708411
42
-0.88829613539641961
10
-88.718517132832403
20
66.894705506137299
42
0.13814861214094462
10
-89.064929798086055
20
66.106669511874742
10
-90.23505594641469
20
57.779431937809761
42
0.1381545676469545
10
-90.119221776174385
20
56.926410012860302
42
-0.78782965488500734
10
-92.603848760100092
20
55.05406604396957
42
0.1381531499496377
10
-93.391896781926405
20
55.400518977847995
10
-101.71916878191722
20
56.570890236939178
42
0.13814930107722273
10
-102.57216388091778
20
56.455093268835917
42
-0.78778978184498794
10
-104.44448626337844
20
58.939690368182418
42
0.1381482677212944
10
-104.09807652866232
20
59.727725394173355
10
-102.92793937546199
20
68.055161422021214
42
0.13815491206579456
10
-103.04377609602228
20
68.908185085319005
42
-0.88836864481041589
10
-100.29823120582883
20
70.508134835726622
0
LWPOLYLINE
5
114
100
AcDbEntity
8
0
100
AcDbPolyline
90
16
70
1
43
0.0
10
-248.47638965761638
20
61.141049078486986
42
-0.78781039476012826
10
-246.2764949499423
20
63.340911731177101
42
0.13815326387359625
10
-245.44789726205585
20
63.107510000000026
10
-237.03710273794445
20
63.107510000000019
42
0.13815326387358318
10
-236.20850505005805
20
63.340911731177087
42
-0.78781039476013526
10
-234.00861034238392
20
61.141049078487029
42
0.13814955153487465
10
-234.24200000000002
20
60.312471121593923
10
-234.24200000000008
20
51.90184887840617
42
0.13814955153483163
10
-234.00861034238403
20
51.073270921513199
42
-0.78781039476012937
10
-236.20850505005816
20
48.873408268822978
42
0.13815326387356366
10
-237.03710273794442
20
49.106810000000046
10
-245.44789726205585
20
49.106810000000095
42
0.13815326387356427
10
-246.2764949499423
20
48.873408268823049
42
-0.7878103947600491
10
-248.47638965761632
20
51.073270921513114
42
0.13814955153488301
10
-248.24299999999999
20
51.901848878406412
10
-248.24300000000019
20
60.312471121593703
42
0.13814955153490158
0
LWPOLYLINE
5
115
100
AcDbEntity
8
0
100
AcDbPolyline
90
16
70
1
43
0.0
10
-95.253615184051171
20
20.00682364741985
42
-0.13814913882755053
10
-95.599892613741574
20
19.21872476843139
42
0.78779722511065831
10
-93.727123788314955
20
16.734455541516247
42
-0.13815032451941753
10
-92.874144067918678
20
16.85041131446247
10
-84.545793257016939
20
15.681444264691258
42
-0.13815894279562377
10
-83.757653908242986
20
15.335112768058536
42
0.78787171646876808
10
-81.273393562746548
20
17.208007743854182
42
-0.13815948021173619
10
-81.389448905802283
20
18.061029341242524
10
-80.221352148887405
20
26.388629759632998
42
-0.13813688323058382
10
-79.87517898715214
20
27.176694159844601
42
0.78774231016223284
10
-81.748044116014881
20
29.66082719728773
42
-0.13814860217960218
10
-82.601015145093456
20
29.544884178542681
10
-90.928373682122654
20
30.71379636756182
42
-0.13816066512889688
10
-91.716517874307385
20
31.060142519087837
42
0.78783033144171244
10
-94.200874602464907
20
29.187438931961868
42
-0.13814722466184709
10
-94.084910020098448
20
28.334479172209946
0
CIRCLE
5
116
100
AcDbEntity
8
0
100
AcDbCircle
10
-83.499997845480593
20
3.9999996553022754
30
0
40
1.7650000000000077
210
0
220
-0
230
1
0
LWPOLYLINE
5
117
100
AcDbEntity
8
0
100
AcDbPolyline
90
16
70
1
43
0.0
10
-33.803400000905469
20
63.189072990509942
42
-0.78781039471383585
10
-31.60358160086637
20
60.989134031780281
42
0.1381583887427984
10
-31.836999999999968
20
60.160509105655578
10
-31.83700000000001
20
51.75014531309305
42
0.13815573891791585
10
-31.60359021913548
20
50.921534470512803
42
-0.78781039474449954
10
-33.80343150023117
20
48.721618391783814
42
0.13814707648484831
10
-34.631996302182685
20
48.955000000000041
10
-43.042000781662892
20
48.955000000000027
42
0.13814724600662273
10
-43.870566484628867
20
48.721617840466067
42
-0.78781039474594583
10
-46.070409229519676
20
50.921532455450659
42
0.1381555693966201
10
-45.83700000000001
20
51.75014239703961
10
-45.836999999999996
20
60.160554686907012
42
0.1381557389178866
10
-46.070409780864452
20
60.989165529487195
42
-0.78781039474448078
10
-43.870568499768879
20
63.189081608216249
42
0.13814707648483013
10
-43.0420036978174
20
62.95570000000005
10
-34.631950718827639
20
62.955700000000043
42
0.13814442664885948
0
LWPOLYLINE
5
118
100
AcDbEntity
8
0
100
AcDbPolyline
90
16
70
1
43
0.0
10
-267.80940374441116
20
80.379897591789756
42
-0.78781039475737225
10
-265.60954643678417
20
82.57979764443256
42
0.13814893251954302
10
-264.78097176996204
20
82.346410000000077
10
-256.37202823003798
20
82.346410000000034
42
0.13814893251953519
10
-255.54345356321588
20
82.57979764443246
42
-0.78781039475747916
10
-253.34359625558901
20
80.379897591789714
42
0.13815388288791017
10
-253.577
20
79.551296613875948
10
-253.577
20
71.142123386124155
42
0.13815388288791633
10
-253.34359625558892
20
70.313522408210375
42
-0.78781039475745307
10
-255.54345356321588
20
68.1136223555676
42
0.13814893251954011
10
-256.37202823003798
20
68.34701000000004
10
-264.78097176996221
20
68.347010000000012
42
0.13814893251952876
10
-265.60954643678434
20
68.113622355567657
42
-0.78781039475742287
10
-267.80940374441104
20
70.313522408210417
42
0.13815388288791411
10
-267.57600000000002
20
71.142123386124297
10
-267.57600000000008
20
79.551296613875948
42
0.13815388288791208
0
CIRCLE
5
119
100
AcDbEntity
8
0
100
AcDbCircle
10
-274.97299999999973
20
11.803799531073846
30
0
40
1.4999999999999858
210
0
220
-0
230
1
0
CIRCLE
5
120
100
AcDbEntity
8
0
100
AcDbCircle
10
11.999999821186067
20
4
30
0
40
1.765000000000001
210
0
220
-0
230
1
0
LWPOLYLINE
5
121
100
AcDbEntity
8
0
100
AcDbPolyline
90
16
70
1
43
0.0
10
-224.01640208634078
20
44.100783561044011
42
-0.78781039471633063
10
-221.81658217144604
20
41.900846117084896
42
0.13815821331033901
10
-222.05000000000024
20
41.072222123362252
10
-222.05000000000015
20
32.660263736705055
42
0.13814460208224952
10
-221.81662643895595
20
31.831712086340854
42
-0.78781039471634196
10
-224.01656388291528
20
29.63189217144614
42
0.13815821331031239
10
-224.84518787663728
20
29.8653100000001
10
-233.25604626329604
20
29.865310000000097
42
0.13814460208218551
10
-234.08459791365954
20
29.631936438956025
42
-0.78781039471629066
10
-236.28441782855418
20
31.831873882915311
42
0.13815821331031397
10
-236.05100000000022
20
32.660497876637315
10
-236.05100000000019
20
41.068563583295045
42
0.13837098412357551
10
-236.28511029964588
20
41.898318106617921
42
-0.78781034548937157
10
-234.08712852537138
20
44.100091994218936
42
0.13793181337485516
10
-233.25970818406287
20
43.867409999999971
10
-224.84495373670441
20
43.867410000000092
42
0.1381446020821929
0
CIRCLE
5
122
100
AcDbEntity
8
0
100
AcDbCircle
10
-83.499997845480593
20
100.89999765530229
30
0
40
1.7650000000000077
210
0
220
-0
230
1
0
LWPOLYLINE
5
123
100
AcDbEntity
8
0
100
AcDbPolyline
90
16
70
1
43
0.0
10
-83.707923226916918
20
53.80267673277914
42
-0.78784206859244621
10
-85.58050157834758
20
56.287141442479864
42
0.13814422731891146
10
-85.234116459308524
20
57.075160817868955
10
-84.063896921111777
20
65.403843951041807
42
0.13814981766347775
10
-84.179730327587038
20
66.256837229377922
42
-0.78782973143763657
10
-81.69509239416611
20
68.12916678561399
42
0.13815791941577829
10
-80.90701699106117
20
67.782705056406982
10
-72.577910561830592
20
66.612184762331552
42
0.13815366640245688
10
-71.724891994451127
20
66.728003486004496
42
-0.78784732646298616
10
-69.852639649953005
20
64.243287009222158
42
0.13815854897414562
10
-70.199146629779193
20
63.455227376453777
10
-71.369908579782077
20
55.127679921818036
42
0.13813549596174257
10
-71.254181209384967
20
54.274758935472107
42
-0.78772245730566437
10
-73.73875208038379
20
52.402505190112059
42
0.13814493595990704
10
-74.526790982167299
20
52.748856446882122
10
-82.854839133574657
20
53.918591600173862
42
0.138166649816229
0
LWPOLYLINE
5
124
100
AcDbEntity
8
0
100
AcDbPolyline
90
16
70
1
43
0.0
10
-198.31794062335021
20
65.476555727459839
42
-0.7877821822581299
10
-195.83318377702284
20
63.604457025967641
42
0.13813496929977898
10
-195.94890984113803
20
62.75153905011738
10
-194.77814083127265
20
54.423941379177556
42
0.13815612768784202
10
-194.4316434413451
20
53.635893393606658
42
-0.78785214094197831
10
-196.30393683956675
20
51.151202280533425
42
0.13815731305990822
10
-197.1569754313366
20
51.267036085076484
10
-205.48602614185867
20
50.096583693848089
42
0.13815722070495851
10
-206.27410063417364
20
49.750130305647396
42
-0.78786495025305026
10
-208.75866480611805
20
51.622611821217255
42
0.13815948021167243
10
-208.6427572563201
20
52.475653513142333
10
-209.81230940699064
20
60.803141145378952
42
0.13813161674524252
10
-210.15859824776868
20
61.591120218464454
42
-0.7877423100708536
10
-208.28611218240286
20
64.075538998201665
42
0.13815386863165652
10
-207.43309097574621
20
63.959730698467652
10
-199.10602479699207
20
65.130073030046987
42
0.13816066512891953
0
LWPOLYLINE
5
125
100
AcDbEntity
8
0
100
AcDbPolyline
90
15
70
1
43
0.0
10
-149.67911485054148
20
57.70306690941208
42
-0.78781024582342418
10
-152.16398216590284
20
59.575062097431726
42
0.13814630501925823
10
-152.04827728859857
20
60.428051558997744
10
-153.21968947627076
20
68.756732140927539
42
0.13816017712129106
10
-153.56624845587436
20
69.544779575140069
42
-0.7878799067311244
10
-151.69403759789765
20
72.029565008047015
42
0.13816033039985548
10
-150.84097978904546
20
71.913738230023398
10
-141.98555709229899
20
73.158313469825131
42
-0.88828809348499438
10
-139.24007968610385
20
71.558315369974622
42
0.13815631936268544
10
-139.35585870970161
20
70.705275355805085
10
-138.18512654629382
20
62.377939771127032
42
0.13815016279219974
10
-137.83865278086088
20
61.589920479121936
42
-0.78777119957080532
10
-139.71071113459371
20
59.105145947567379
42
0.1381426761626818
10
-140.56367982750606
20
59.220842011276702
10
-148.89108516017865
20
58.049611042680851
42
0.13815647247818688
0
LWPOLYLINE
5
126
100
AcDbEntity
8
0
100
AcDbPolyline
90
16
70
1
43
0.0
10
-15.229152702817668
20
24.475400000000015
42
-0.13813841467363025
10
-16.057671466379407
20
24.708753439089346
42
0.7878103945911541
10
-18.257437952808164
20
22.50876257097979
42
-0.13816440067338726
10
-18.023999999999972
20
21.680105692437984
10
-18.023999999999983
20
13.268594307562198
42
-0.13816440067337774
10
-18.257437952808182
20
12.43993742902031
42
0.7878103945911431
10
-16.057671466379389
20
10.239946560910635
42
-0.13813841467360966
10
-15.229152702817661
20
10.473300000000014
10
-6.8188472971821703
20
10.473300000000027
42
-0.13813841467362065
10
-5.990328533620465
20
10.239946560910644
42
0.78781039459113378
10
-3.7905620471916879
20
12.439937429020304
42
-0.13816440067337707
10
-4.0239999999998854
20
13.268594307562198
10
-4.023999999999976
20
21.680105692437735
42
-0.13816440067340591
10
-3.7905620471916923
20
22.508762570979755
42
0.78781039459114655
10
-5.9903285336204775
20
24.708753439089385
42
-0.13813841467360899
10
-6.8188472971821668
20
24.475400000000036
0
CIRCLE
5
127
100
AcDbEntity
8
0
100
AcDbCircle
10
-186.99999592955933
20
100.89999800000001
30
0
40
1.7650000000000077
210
0
220
-0
230
1
0
LWPOLYLINE
5
128
100
AcDbEntity
8
0
100
AcDbPolyline
90
16
70
1
43
0.0
10
-83.338084315744453
20
36.735252795981012
42
-0.78779933497268573
10
-85.822677298633764
20
34.862910276373505
42
0.13813916284789457
10
-86.610654126015362
20
35.20931670480136
10
-94.939169894768156
20
36.379958559862587
42
0.13814949331760423
10
-95.792167398558888
20
36.264170735310806
42
-0.78786892251415763
10
-97.66426498277113
20
38.749028804790242
42
0.13816821858335188
10
-97.317675718346379
20
39.537115607905136
10
-96.14627765424612
20
47.865815915354013
42
0.1381487559882886
10
-96.261990307614568
20
48.718819156903017
42
-0.78776345229469336
10
-93.777287387218792
20
50.590960652349814
42
0.13814211098711221
10
-92.989302271992571
20
50.244529139988416
10
-84.661773264268462
20
49.073881478569341
42
0.13814654518644581
10
-83.808790641849384
20
49.189647474926943
42
-0.78780987172935668
10
-81.936615864304954
20
46.704915897959644
42
0.13815613709394647
10
-82.283102320897882
20
45.916863043566337
10
-83.453886423687052
20
37.588317023494099
42
0.13816083751080679
0
CIRCLE
5
129
100
AcDbEntity
8
0
100
AcDbCircle
10
-274.97299999999973
20
17.553799531073821
30
0
40
1.4999999999999858
210
0
220
-0
230
1
0
LWPOLYLINE
5
130
100
AcDbEntity
8
0
100
AcDbPolyline
90
16
70
1
43
0.0
10
-262.47839770645578
20
41.90091966000459
42
-0.7878103947632793
10
-260.2785243682593
20
44.100803682280194
42
0.13815078903465433
10
-259.44993983406187
20
43.867410000000078
10
-251.03772740302642
20
43.867410000000085
42
0.13813144530715149
10
-250.20924568311574
20
44.10074077506043
42
-0.78781039435644307
10
-248.00953937885154
20
41.900689732877161
42
0.13817136995451779
10
-248.24300000000022
20
41.071995814400452
10
-248.24300000000017
20
32.660391450626989
42
0.13815202637485785
10
-248.00960229354467
20
31.831800339995514
42
-0.78781039476330994
10
-250.20947563174136
20
29.631916317719931
42
0.13815078903466618
10
-251.03806016593867
20
29.86531000000015
10
-259.44991854937331
20
29.865310000000083
42
0.1381520263749221
10
-260.27850966000506
20
29.631912293544524
42
-0.78781039476319725
10
-262.47839368228011
20
31.831785631741045
42
0.13815078903469558
10
-262.245
20
32.660370165938104
10
-262.24500000000023
20
41.072328549373147
42
0.13815202637490825
0
LWPOLYLINE
5
131
100
AcDbEntity
8
0
100
AcDbPolyline
90
16
70
1
43
0.0
10
-64.944777075241419
20
46.538481301324559
42
-0.78774231019549712
10
-63.072386420395681
20
44.053990614188876
42
0.13814140074068787
10
-63.418714001991447
20
43.265964467895621
10
-64.588242743680013
20
34.938643513142296
42
0.1381594802117499
10
-64.472335193882088
20
34.08560182121721
42
-0.78779754769856725
10
-66.956693859864657
20
32.212951149148019
42
0.13814006523347017
10
-67.744720117048985
20
32.559258569628156
10
-76.073860498601078
20
33.728882538101452
42
0.13816468454626588
10
-76.926929748038646
20
33.612945972111469
42
-0.78791007000122804
10
-78.799395666267586
20
36.097574099858491
42
0.13816349972061159
10
-78.452880048961489
20
36.885662371048262
10
-77.282057406888384
20
45.214482546021841
42
0.13813738119881408
10
-77.397801327097994
20
46.067412697489715
42
-0.78779165800635009
10
-74.913059376649898
20
47.939545727459851
42
0.13816066512890054
10
-74.124975203008006
20
47.593063030046956
10
-65.797742357590309
20
46.422697274004832
42
0.13814408468158476
0
LWPOLYLINE
5
132
100
AcDbEntity
8
0
100
AcDbPolyline
90
16
70
1
43
0.0
10
-109.45485110161462
20
72.030707068930326
42
-0.78778158664593712
10
-107.58248936343247
20
69.546149114572358
42
0.13814498598061176
10
-107.92887435430936
20
68.758124712426081
10
-109.09909226685619
20
60.429212858172349
42
0.13815893231984799
10
-108.98323285419949
20
59.576167943196339
42
-0.7879278297255321
10
-111.46809539735648
20
57.703985854469231
42
0.13817377179788243
10
-112.25619848966093
20
58.05062081039722
10
-120.58358221323729
20
59.222089016248709
42
0.13812794050785568
10
-121.43646994450989
20
59.106453628143569
42
-0.78765632753892156
10
-123.30860261277208
20
61.59103913671273
42
0.13813565755131685
10
-122.96229698930824
20
62.379037307252794
10
-121.79278101230865
20
70.706207306813184
42
0.13816826066849602
10
-121.90870950533851
20
71.559299298674091
42
-0.78787585501412216
10
-119.42417476266358
20
73.431836604515894
42
0.13815121563919044
10
-118.63613505241608
20
73.085393591289204
10
-110.30785270350106
20
71.914904687880295
42
0.13815049686152739
0
LWPOLYLINE
5
133
100
AcDbEntity
8
0
100
AcDbPolyline
90
16
70
1
43
0.0
10
-266.95540978086456
20
22.659275529487314
42
-0.78781039474447667
10
-264.75556849976891
20
24.859191608216417
42
0.13814707648489385
10
-263.92700369781721
20
24.625810000000182
10
-255.51699630218283
20
24.625810000000104
42
0.13814707648483118
10
-254.68843150023136
20
24.859191608216413
42
-0.78781039474450421
10
-252.48859021913569
20
22.659275529487353
42
0.13815573891786495
10
-252.72200000000015
20
21.830664686906825
10
-252.72200000000012
20
13.420255313093223
42
0.13815573891786845
10
-252.48859021913563
20
12.59164447051268
42
-0.78781039474446612
10
-254.6884315002313
20
10.39172839178374
42
0.13814707648486252
10
-255.51699630218292
20
10.625109999999964
10
-263.92700369781733
20
10.625109999999998
42
0.13814707648491598
10
-264.75556849976886
20
10.391728391783712
42
-0.78781039474451109
10
-266.9554097808645
20
12.591644470512788
42
0.13815573891779709
10
-266.72200000000026
20
13.420255313092756
10
-266.72200000000021
20
21.83066468690733
42
0.13815573891779784
0
LWPOLYLINE
5
134
100
AcDbEntity
8
0
100
AcDbPolyline
90
16
70
1
43
0.0
10
-112.59478546706747
20
19.376780340813642
42
-0.78783590088646915
10
-114.46883333093962
20
21.860129633852125
42
0.13815823363316171
10
-114.12290947487016
20
22.648443341283198
10
-112.95816084814996
20
30.977816608365771
42
0.13815174197094016
10
-113.07455821865241
20
31.83074476089509
42
-0.78778488922560652
10
-110.59129923397538
20
33.704834011840163
42
0.13814458149094855
10
-109.80303827969324
20
33.358993713938659
10
-101.47395044356516
20
32.194603200092146
42
0.13815107370704036
10
-100.62103047165338
20
32.311030869771557
42
-0.78783590088644329
10
-98.746982607781263
20
29.827681576733013
42
0.13815823363319921
10
-99.092906463850667
20
29.039367869301959
10
-100.25765509057094
20
20.709994602219261
42
0.13815174197099073
10
-100.14125772006855
20
19.857066449689931
42
-0.78778488922557965
10
-102.6245167047456
20
17.982977198745029
42
0.13814458149094902
10
-103.41277765902765
20
18.32881749664654
10
-111.74186549515545
20
19.493208010493063
42
0.13815107370702598
0
LWPOLYLINE
5
135
100
AcDbEntity
8
0
100
AcDbPolyline
90
16
70
1
43
0.0
10
-37.307437952808129
20
22.508762570979787
42
-0.78781039459112501
10
-35.107671466379387
20
24.708753439089406
42
0.13813841467363769
10
-34.279152702817676
20
24.475400000000054
10
-25.868847297182374
20
24.475400000000036
42
0.13813841467362481
10
-25.040328533620581
20
24.708753439089385
42
-0.78781039459113611
10
-22.840562047191803
20
22.508762570979815
42
0.13816440067337682
10
-23.073999999999998
20
21.68010569243792
10
-23.073999999999874
20
13.268594307561861
42
0.13816440067336877
10
-22.840562047191781
20
12.439937429020301
42
-0.78781039459112656
10
-25.040328533620478
20
10.239946560910626
42
0.1381384146736141
10
-25.868847297182299
20
10.473299999999989
10
-34.279152702817676
20
10.473300000000014
42
0.13813841467360805
10
-35.107671466379394
20
10.239946560910626
42
-0.7878103945911108
10
-37.307437952808172
20
12.439937429020276
42
0.13816440067338023
10
-37.074000000000041
20
13.268594307561949
10
-37.073999999999991
20
21.680105692437905
42
0.13816440067340904
0
LWPOLYLINE
5
136
100
AcDbEntity
8
0
100
AcDbPolyline
90
16
70
1
43
0.0
10
-197.13497060630218
20
70.270723120193068
42
-0.78789781042893747
10
-199.61976263619025
20
72.142952711260847
42
0.13815683601640671
10
-199.50391096824038
20
72.995985989768542
10
-200.67414136757165
20
81.324806497206964
42
0.13813497003109659
10
-201.02048904513055
20
82.112781680347467
42
-0.78778361576620415
10
-199.14802968790767
20
84.597268415151348
42
0.13816102927431523
10
-198.29496788444004
20
84.481439903142615
10
-189.96689185845986
20
85.651899809130953
42
0.13815279542432926
10
-189.17884454849792
20
85.998349078866994
42
-0.7877795533728198
10
-186.6941467675565
20
84.126176023875928
42
0.13814216987592898
10
-186.80988984356534
20
83.273216773394267
10
-185.63912803772917
20
74.945730414077318
42
0.13814963621081733
10
-185.29265557417455
20
74.157713999728685
42
-0.78778060403512784
10
-187.16475066357279
20
71.67295625885798
42
0.13814559652285291
10
-188.01773456628169
20
71.788670502647548
10
-196.34687992699969
20
70.617303712971079
42
0.13816822813449739
0
CIRCLE
5
137
100
AcDbEntity
8
0
100
AcDbCircle
10
-282.49999359622609
20
100.89999800000001
30
0
40
1.7650000000000077
210
0
220
-0
230
1
0
CIRCLE
5
138
100
AcDbEntity
8
0
100
AcDbCircle
10
-274.97299999999973
20
23.303799531073818
30
0
40
1.4999999999999858
210
0
220
-0
230
1
0
LWPOLYLINE
5
139
100
AcDbEntity
8
0
100
AcDbPolyline
90
16
70
1
43
0.0
10
-217.15850505005767
20
63.340911731177101
42
-0.78781039476010739
10
-214.95861034238379
20
61.14104907848693
42
0.13814955153484182
10
-215.19199999999989
20
60.31247112159393
10
-215.19199999999998
20
51.901848878406341
42
0.13814955153487909
10
-214.95861034238385
20
51.073270921513164
42
-0.78781039476010417
10
-217.15850505005778
20
48.873408268823006
42
0.13815326387357513
10
-217.98710273794441
20
49.106810000000124
10
-226.39789726205592
20
49.106810000000074
42
0.13815326387357402
10
-227.22649494994241
20
48.873408268822914
42
-0.7878103947601317
10
-229.42638965761637
20
51.073270921513185
42
0.13814955153482372
10
-229.19300000000015
20
51.901848878406575
10
-229.19300000000021
20
60.312471121594022
42
0.13814955153490224
10
-229.42638965761637
20
61.141049078486908
42
-0.78781039476011938
10
-227.22649494994246
20
63.340911731177052
42
0.13815326387357815
10
-226.39789726205592
20
63.107509999999976
10
-217.98710273794441
20
63.107510000000019
42
0.13815326387356591
0
LWPOLYLINE
5
140
100
AcDbEntity
8
0
100
AcDbPolyline
90
16
70
1
43
0.0
10
-76.387860602433065
20
17.357684274185839
42
-0.13812710001895864
10
-76.734074483476945
20
16.569701852993727
42
0.78771629019532041
10
-74.861458686625639
20
14.085410990886537
42
-0.13815176204720772
10
-74.008453482507861
20
14.201243241544155
10
-65.681214170853067
20
13.031167035814587
42
-0.13815819444876987
10
-64.893130031647274
20
12.684721079828073
42
0.78780144182099909
10
-62.408485657730807
20
14.556998638071235
42
-0.13814234217237487
10
-62.524283319017108
20
15.409951522641599
10
-61.354045743126477
20
23.737544371025272
42
-0.13815333212654504
10
-61.00760867806467
20
24.525600562692969
42
0.78778474114165042
10
-62.879840474988598
20
27.010260087098491
42
-0.13814295364138093
10
-63.732801218360393
20
26.894493055508491
10
-72.062080156208609
20
28.065287687564243
42
-0.13816700280473843
10
-72.850189051887554
20
28.41180859695897
42
0.78793911793400995
10
-75.334776845456361
20
26.539244577387414
42
-0.13816857413146122
10
-75.218784934218576
20
25.686159308640413
0
LWPOLYLINE
5
141
100
AcDbEntity
8
0
100
AcDbPolyline
90
16
70
1
43
0.0
10
-39.167999999999992
20
32.508900743400957
42
-0.13817058846413452
10
-39.401458079218365
20
31.680210978310335
42
0.78781039438767475
10
-37.201745026420078
20
29.480166683583526
42
-0.13813222680892476
10
-36.373259152628478
20
29.713500000000003
10
-27.963740847371493
20
29.713500000000003
42
-0.13813222680891968
10
-27.135254973579915
20
29.48016668358358
42
0.78781039438768008
10
-24.935541920781557
20
31.680210978310349
42
-0.13817058846416144
10
-25.168999999999979
20
32.508900743401092
10
-25.168999999999983
20
40.92019925659892
42
-0.13817058846415886
10
-24.935541920781553
20
41.748889021689699
42
0.78781039438766842
10
-27.135254973579901
20
43.948933316416444
42
-0.13813222680894127
10
-27.96374084737149
20
43.715600000000016
10
-36.373259152628492
20
43.715600000000016
42
-0.13813222680891751
10
-37.201745026420099
20
43.948933316416472
42
0.78781039438767286
10
-39.401458079218358
20
41.748889021689692
42
-0.13817058846414493
10
-39.167999999999971
20
40.920199256598991
0
LWPOLYLINE
5
142
100
AcDbEntity
8
0
100
AcDbPolyline
90
16
70
1
43
0.0
10
-205.69091088082342
20
11.336389324175133
42
-0.78782356457790548
10
-208.17879470539231
20
13.204394205445446
42
0.13815421321148116
10
-208.06445437015122
20
14.057615505703513
10
-209.24917762537206
20
22.382977414430343
42
0.13814387236629863
10
-209.59695000709135
20
23.170383213318949
42
-0.78779045838720252
10
-207.72893808946191
20
25.658223484967717
42
0.13815386863167789
10
-206.87571541172616
20
25.543908991176522
10
-198.55059223704657
20
26.728847046764074
42
0.13815367659594066
10
-197.76314952779637
20
27.076681400954683
42
-0.78778218239168352
10
-195.27516970587072
20
25.208868096591026
42
0.13814195788118799
10
-195.38941940924798
20
24.355708815462886
10
-194.20408763094431
20
16.030292933845242
42
0.1381561276877537
10
-193.85621091099537
20
15.242852868502721
42
-0.78784537485215245
10
-195.7241262512895
20
12.754876608507107
42
0.13815559096811283
10
-196.57735764461842
20
12.869203840240528
10
-204.90347298727571
20
11.684209014709893
42
0.13815195425829951
0
LWPOLYLINE
5
143
100
AcDbEntity
8
0
100
AcDbPolyline
90
16
70
1
43
0.0
10
-157.63405954608274
20
29.661683713193177
42
-0.13815421321149768
10
-157.5182254073506
20
30.514703497126227
42
0.78783033148782244
10
-160.00285519774866
20
32.387044780895785
42
-0.13815367659592692
10
-160.79090575304124
20
32.040589761290903
10
-169.11818068743034
20
30.870218089779424
42
-0.13814860217961961
10
-169.97117179158565
20
30.986013324029788
42
0.78779045841265016
10
-171.84348566010658
20
28.501409025648705
42
-0.13814913882755506
10
-171.49707169237914
20
27.713370153295855
10
-170.32694045391733
20
19.38603628680697
42
-0.13815421321145741
10
-170.4427745926495
20
18.533016502873913
42
0.78783033148779824
10
-167.9581448022515
20
16.660675219104334
42
-0.13815367659597569
10
-167.17009424695891
20
17.007130238709223
10
-158.84281931256976
20
18.177501910220705
42
-0.13814860217961802
10
-157.98982820841456
20
18.061706675970278
42
0.78779045841261852
10
-156.11751433989352
20
20.546310974351361
42
-0.13814913882759161
10
-156.46392830762102
20
21.334349846704178
0
LWPOLYLINE
5
144
100
AcDbEntity
8
0
100
AcDbPolyline
90
15
70
1
43
0.0
10
-16.84800369781729
20
62.955699999999993
42
-0.1381470764848774
10
-17.67656849976882
20
63.189081608216227
42
0.787810394744478
10
-19.876409780864378
20
60.989165529487217
42
-0.13815573891787536
10
-19.642999999999965
20
60.160554686907098
10
-19.642999999999965
20
51.750145313092865
42
-0.13815573891788294
10
-19.876409780864378
20
50.92153447051281
42
0.88832821521724847
10
-17.380314868038393
20
48.95500000000002
10
-8.4379963021825724
20
48.954999999999998
42
-0.13814707648487987
10
-7.6094315002309809
20
48.721618391783778
42
0.78781039474447889
10
-5.4095902191353717
20
50.921534470512817
42
-0.13815573891794447
10
-5.6429999999999847
20
51.750145313093221
10
-5.6429999999999847
20
60.160554686906934
42
-0.13815573891789232
10
-5.4095902191354774
20
60.989165529487266
42
0.78781039474448078
10
-7.6094315002309552
20
63.189081608216291
42
-0.13814707648487004
10
-8.4379963021826843
20
62.955700000000022
0
LWPOLYLINE
5
145
100
AcDbEntity
8
0
100
AcDbPolyline
90
16
70
1
43
0.0
10
-5.79847563174099
20
43.948993682280175
42
-0.78781039476326276
10
-3.5986022935444204
20
41.749109660004734
42
0.1381520263748941
10
-3.8320000000000265
20
40.920518549373057
10
-3.8319999999999954
20
32.508581450626949
42
0.13815202637489357
10
-3.5986022935443973
20
31.679990339995324
42
-0.78781039476325843
10
-5.79847563174099
20
29.480106317719795
42
0.13815078903469649
10
-6.6270601659383956
20
29.713499999999971
10
-15.038939834061384
20
29.713499999999982
42
0.13815078903469877
10
-15.867524368258959
20
29.480106317719766
42
-0.78781039476325165
10
-18.06739770645548
20
31.67999033999525
42
0.13815202637486532
10
-17.833999999999982
20
32.508581450626714
10
-17.833999999999971
20
40.920518549373284
42
0.13815202637486618
10
-18.067397706455456
20
41.749109660004748
42
-0.7878103947632743
10
-15.867524368258955
20
43.948993682280182
42
0.13815078903470193
10
-15.038939834061489
20
43.715600000000016
10
-6.6270601659383921
20
43.71560000000003
42
0.13815078903468841
0
LWPOLYLINE
5
146
100
AcDbEntity
8
0
100
AcDbPolyline
90
16
70
1
43
0.0
10
-241.80032579536729
20
68.113561983882491
42
-0.78781039449925805
10
-244.00034337746914
20
70.313301753149517
42
0.13813532068333376
10
-243.76700000000011
20
71.141804071586691
10
-243.76700000000005
20
79.445990629392753
42
0.17789865098286292
10
-244.14464697331596
20
80.473809632828392
42
-0.92308315271702834
10
-241.88638244183443
20
82.726569160035268
42
0.17852820212437356
10
-240.85561362868918
20
82.346410000000034
10
-232.56034752684386
20
82.34641000000002
42
0.1381674946302508
10
-231.73167420463275
20
82.579858016117655
42
-0.78781039449909385
10
-229.53165662253116
20
80.3801182468506
42
0.13813532068339318
10
-229.76500000000021
20
79.551615928413469
10
-229.76500000000021
20
71.142357526843696
42
0.13816749463017255
10
-229.53155198388262
20
70.313684204632807
42
-0.78781039449916457
10
-231.73129175314978
20
68.113666622530914
42
0.13813532068338
10
-232.55979407158677
20
68.347009999999912
10
-240.97165247315641
20
68.347010000000012
42
0.1381674946302015
0
LWPOLYLINE
5
147
100
AcDbEntity
8
0
100
AcDbPolyline
90
16
70
1
43
0.0
10
-170.91390881151517
20
57.77681056885713
42
-0.13815823355892032
10
-171.0297656426136
20
56.923769532656507
42
0.78791360716411696
10
-168.54493945399028
20
55.051561025826246
42
-0.13817085091919129
10
-167.75684351319461
20
55.398168729215215
10
-159.42767559240178
20
56.569718911626367
42
-0.1381426193989693
10
-158.57470625268527
20
56.454030149680818
42
0.78776683900949251
10
-156.70265836749834
20
58.938807520294944
42
-0.13814910962755964
10
-157.04912952917769
20
59.726821056971673
10
-158.21988498139791
20
68.054202154244607
42
-0.1381430507751884
10
-158.1041405686189
20
68.907166555141458
42
0.78777887646885669
10
-160.58883167435243
20
70.779347429285679
42
-0.1381517422301109
10
-161.37687391782282
20
70.432902330577249
10
-169.70495597979581
20
69.262441576267221
42
-0.13816172815281738
10
-170.55802177789667
20
69.378271822281931
42
0.78778226287488162
10
-172.43049134574474
20
66.893794349101938
42
-0.13813392679239805
10
-172.08414936539765
20
66.105823496659156
0
LWPOLYLINE
5
148
100
AcDbEntity
8
0
100
AcDbPolyline
90
16
70
1
43
0.0
10
-186.82283576298835
20
14.017206322268013
42
-0.78783371073445085
10
-189.30636083435508
20
15.891017874153604
42
0.1381641683992664
10
-189.19002751824618
20
16.744029984899743
10
-190.35568336944235
20
25.073132260551382
42
0.13815177271813445
10
-190.70166938809376
20
25.861376368445864
42
-0.78778513084004542
10
-188.82801880574019
20
28.34496663067155
42
0.13814461224286448
10
-187.97511413143624
20
28.228713554241679
10
-179.64713573875815
20
29.394527274329366
42
0.13814507741296392
10
-178.85893669628723
20
29.740516051347932
42
-0.78778683757908918
10
-176.37532881766253
20
27.86688620034068
42
0.13815174197093821
10
-176.49157008483584
20
27.013936759258165
10
-175.32531128028455
20
18.684878425320235
42
0.13816419914624062
10
-174.97921954238751
20
17.896599332616109
42
-0.78783590080645238
10
-176.85275472005532
20
15.412863226484919
42
0.13814510816491096
10
-177.70566189558861
20
15.529119976096922
10
-186.03463811697847
20
14.363190880482549
42
0.13814458149092648
0
LWPOLYLINE
5
149
100
AcDbEntity
8
0
100
AcDbPolyline
90
24
70
1
43
0.0
10
-93.863500276120263
20
73.724155135314589
42
-0.20343670031828179
10
-94.926619557394503
20
74.363355724429027
42
0.20352501698443851
10
-95.990272100852167
20
75.002631338309527
10
-112.68188304131307
20
77.348090461839746
42
0.20349213363737315
10
-113.88036688820156
20
77.026829691882412
42
-0.20356626006037085
10
-115.07929830885843
20
76.705631878730358
10
-117.30323191584156
20
77.018778602283206
42
-0.15238248682700059
10
-118.15788902179519
20
77.423566027065519
42
0.20380116949469501
10
-119.32817900148508
20
77.841058408735705
42
-0.6547953428390777
10
-120.65848921274865
20
80.455128708776456
42
0.13815140770484305
10
-120.31206625982099
20
81.243178496094117
10
-119.1419277973548
20
89.570563772795865
42
0.13814892633693682
10
-119.25774881901388
20
90.423553337898554
42
-0.7878006458980864
10
-116.77317068071559
20
92.295917569691838
42
0.13815140770487666
10
-115.98511593193429
20
91.949505903419094
10
-88.791884064799817
20
88.128794096122249
42
0.13815140770488762
10
-87.938881975591258
20
88.244633491030186
42
-0.78785881805564661
10
-86.066603967563168
20
85.759923054878513
42
0.13816373247318176
10
-86.413120506734217
20
84.97183366408278
10
-87.583909002458
20
76.643256394219591
42
0.1381514077048798
10
-87.468130288337392
20
75.790246066636598
42
-0.65470020374040938
10
-89.46706120775201
20
73.644001843946455
42
0.20382984172496285
10
-90.707228579991011
20
73.564861499802262
42
-0.15262403830339547
10
-91.641780343511797
20
73.411196606699264
0
LWPOLYLINE
5
150
100
AcDbEntity
8
0
100
AcDbPolyline
90
16
70
1
43
0.0
10
-179.21064838256319
20
46.704158617868544
42
-0.78773216819086611
10
-177.33829044911889
20
49.188662220149538
42
0.13813811920319599
10
-176.48535926551671
20
49.072892991204569
10
-168.15789023656959
20
50.243291942081029
42
0.13815276570728588
10
-167.36984406316901
20
50.589743354211485
42
-0.78784047941971469
10
-164.88523692433577
20
48.717356427610497
42
0.13815770696504809
10
-165.00109244880286
20
47.864318401268875
10
-163.83090595228128
20
39.535690218684977
42
0.1381570388974738
10
-163.48447244708183
20
38.747608176825416
42
-0.78778707750966503
10
-165.35673406445204
20
36.262968418296595
42
0.13813984154977788
10
-166.20967394208242
20
36.378750398964776
10
-174.53813523551037
20
35.208296418575678
42
0.13815104336898221
10
-175.32617656747465
20
34.861859661577242
42
-0.78788185970174562
10
-177.81068735454565
20
36.734437970080108
42
0.13816996119265898
10
-177.69474108170684
20
37.587537838434386
10
-178.86431914420336
20
45.916111030673051
42
0.1381447846110809
0
CIRCLE
5
151
100
AcDbEntity
8
0
100
AcDbCircle
10
-282.49999359622609
20
4
30
0
40
1.7650000000000077
210
0
220
-0
230
1
0
LWPOLYLINE
5
152
100
AcDbEntity
8
0
100
AcDbPolyline
90
16
70
1
43
0.0
10
-269.90836953652371
20
61.141122624300536
42
-0.78781039469759651
10
-267.70842140743576
20
63.340931853419264
42
0.1381594508061868
10
-266.87979083658252
20
63.107509999999927
10
-258.46820916341744
20
63.107510000000019
42
0.13815945080619504
10
-257.63957859256431
20
63.340931853419278
42
-0.78781039469754954
10
-255.43963046347642
20
61.141122624300493
42
0.13814336457956047
10
-255.67300000000031
20
60.312577551365145
10
-255.67300000000029
20
51.901742448634955
42
0.13814336457957815
10
-255.43963046347636
20
51.073197375699493
42
-0.78781039469750436
10
-257.63957859256431
20
48.873388146580758
42
0.13815945080618286
10
-258.46820916341744
20
49.106810000000038
10
-266.87979083658252
20
49.106810000000081
42
0.13815945080609701
10
-267.70842140743571
20
48.873388146580965
42
-0.78781039469763037
10
-269.90836953652365
20
51.073197375699593
42
0.13814336457963278
10
-269.67499999999967
20
51.901742448635453
10
-269.6749999999999
20
60.312577551365159
42
0.13814336457954318
0
LWPOLYLINE
5
153
100
AcDbEntity
8
0
100
AcDbPolyline
90
16
70
1
43
0.0
10
-2.7425922309536777
20
70.161727117675952
42
-0.7878103947495575
10
-4.9424388533365953
20
67.961816380058991
42
0.13814769505862895
10
-5.7710069430285671
20
68.195199999999986
10
-14.180865327403671
20
68.195200000000028
42
0.13815512034595856
10
-15.009472882323982
20
67.961792230953648
42
-0.7878103947495807
10
-17.209383619941001
20
70.161638853336726
42
0.13814769505864505
10
-16.975999999999992
20
70.990206943028795
10
-16.975999999999964
20
79.40159003216425
42
0.13803163171226995
10
-17.209006292769928
20
80.229541146103983
42
-0.7878103801036338
10
-15.008093656800659
20
82.428385365252993
42
0.1382711783685516
10
-14.178869358029996
20
82.194600000000008
10
-5.7711346725961832
20
82.194600000000008
42
0.13815512034597774
10
-4.9425271176758754
20
82.42800776904636
42
-0.78781039474954351
10
-2.7426163800589509
20
80.228161146663325
42
0.13814769505864286
10
-2.975999999999952
20
79.399593056971256
10
-2.9759999999999831
20
70.990334672596092
42
0.13815512034596822
0
LWPOLYLINE
5
154
100
AcDbEntity
8
0
100
AcDbPolyline
90
16
70
1
43
0.0
10
-38.820546436784156
20
67.96181235556756
42
-0.7878103947573899
10
-41.020403744411013
20
70.161712408210349
42
0.13815388288787916
10
-40.786999999999978
20
70.99031338612437
10
-40.7869999999999
20
79.39948661387551
42
0.13815388288790179
10
-41.02040374441102
20
80.228087591789702
42
-0.78781039475738024
10
-38.820546436784163
20
82.42798764443252
42
0.13814893251954524
10
-37.991971769962007
20
82.194600000000008
10
-29.583028230037893
20
82.194599999999994
42
0.13814893251955679
10
-28.754453563215773
20
82.427987644432491
42
-0.7878103947574201
10
-26.554596255588958
20
80.228087591789716
42
0.13815388288790567
10
-26.788000000000064
20
79.399486613875709
10
-26.787999999999982
20
70.990313386124356
42
0.13815388288790539
10
-26.554596255588883
20
70.161712408210335
42
-0.78781039475740722
10
-28.754453563215769
20
67.96181235556756
42
0.13814893251956945
10
-29.583028230037897
20
68.195200000000028
10
-37.991971769962007
20
68.195200000000028
42
0.13814893251956051
0
LWPOLYLINE
5
155
100
AcDbEntity
8
0
100
AcDbPolyline
90
16
70
1
43
0.0
10
-201.21359766978912
20
33.445120785684011
42
-0.78783522171455134
10
-203.08576570587081
20
30.960354791431005
42
0.13814263691885956
10
-203.93872156179143
20
31.076143706650722
10
-212.26725428118786
20
29.90567968829594
42
0.13814405499382323
10
-213.05526199415391
20
29.55927060694912
42
-0.78787915484271465
10
-215.5397256701072
20
31.431907267998476
42
0.13817626113514811
10
-215.42376715036841
20
32.285043603562102
10
-216.59331318775656
20
40.613148468255382
42
0.13814267761848104
10
-216.93963721416691
20
41.401184542308719
42
-0.78770884576945455
10
-215.06735310163847
20
43.88571676589126
42
0.13813428946765607
10
-214.21443938311603
20
43.769989651578811
10
-205.88786917030691
20
44.940586970199654
42
0.13815240241494148
10
-205.09983799313264
20
45.287067077565631
42
-0.78781836368086733
10
-202.6151271547111
20
43.414851732456434
42
0.13815244129673984
10
-202.73090928103488
20
42.561835612023131
10
-201.56012437708512
20
34.233223821721559
42
0.13816649754322272
0
LWPOLYLINE
5
156
100
AcDbEntity
8
0
100
AcDbPolyline
90
16
70
1
43
0.0
10
-216.58647563174085
20
24.860603682280228
42
-0.78781039476333059
10
-214.38660229354454
20
22.660719660004535
42
0.13815202637490068
10
-214.62000000000023
20
21.832128549372808
10
-214.62000000000029
20
13.420191450627101
42
0.13815202637491128
10
-214.38660229354457
20
12.591600339995509
42
-0.7878103947633146
10
-216.58647563174105
20
10.39171631771978
42
0.13815078903471004
10
-217.41506016593837
20
10.625109999999971
10
-225.8269398340619
20
10.625109999999999
42
0.13815078903471339
10
-226.65552436825922
20
10.391716317719952
42
-0.78781039476328796
10
-228.85539770645593
20
12.591600339995503
42
0.1381520263749379
10
-228.62200000000016
20
13.420191450627525
10
-228.62200000000013
20
21.832128549373198
42
0.13815202637485713
10
-228.85539770645565
20
22.660719660004652
42
-0.78781039476330339
10
-226.65552436825914
20
24.860603682280278
42
0.13815078903467243
10
-225.82693983406173
20
24.627210000000087
10
-217.41506016593834
20
24.627210000000076
42
0.13815078903469477
0
LWPOLYLINE
5
157
100
AcDbEntity
8
0
100
AcDbPolyline
90
10
70
1
43
0.0
10
16.000000000000014
20
102.86504798633445
10
16.000000000000018
20
1.9999999999999998
42
-0.41421356237309431
10
14.000000000000021
20
-2.2204460492503131e-15
10
-10.904634641356594
20
-2.2204460492503131e-15
10
-29.228751350292441
20
2.172207080874955e-08
10
-284.50949203605512
20
-1.277552452716435e-08
42
-0.41421356237309531
10
-286.50949207055271
20
2.0000000217220659
10
-286.50949212294199
20
102.86499999457858
42
-0.41421356237308982
10
-284.50949212294205
20
104.86499999457857
10
13.986144866726299
20
104.86499999457855
42
-0.41624407457013723
0
ENDSEC
0
SECTION
2
OBJECTS
0
DICTIONARY
5
C
100
AcDbDictionary
3
ACAD_GROUP
350
D
3
ACAD_MLINESTYLE
350
17
0
DICTIONARY
5
D
100
AcDbDictionary
0
DICTIONARY
5
1A
330
C
100
AcDbDictionary
0
DICTIONARY
5
17
100
AcDbDictionary
0
ENDSEC
0
EOF
